<svg xmlns="http://www.w3.org/2000/svg" viewBox="0 0 216 216"><defs><style>.cls-1{fill:#fff;}</style></defs><title>film</title><g id="Layer_2" data-name="Layer 2"><g id="Layer_1-2" data-name="Layer 1"><path class="cls-1" d="M108,5A103,103,0,1,0,211,108,103,103,0,0,0,108,5ZM87.8,101.6H82.25v3.17H87v2.6H82.25v5.31H79.15V99H87.8Zm9.64,11.09H94.33V99h3.11Zm15.9,0h-8.5V99h3.11v11.09h5.4Zm19.32,0h-2.9v-5c0-1.34.25-3.34.4-4.66h-.08L129,106.17l-2.12,5.31H125.6l-2.1-5.31L122.4,103h-.08c.15,1.32.4,3.32.4,4.66v5h-2.86V99h3.28l2.29,6.15.82,2.39h.08l.82-2.39L129.38,99h3.28Z"/><path class="cls-1" d="M0,0V216H216V0ZM108,214A106,106,0,1,1,214,108,106,106,0,0,1,108,214Z"/></g></g></svg>