<svg xmlns="http://www.w3.org/2000/svg" viewBox="0 0 206 206"><defs><style>.cls-1{fill:#fff;}</style></defs><title>latest</title><g id="Layer_2" data-name="Layer 2"><g id="Layer_1-2" data-name="Layer 1"><path class="cls-1" d="M77.87,98.38h-.08c-.31,1.45-.69,3-1.07,4.41l-.34,1.26h2.94L79,102.79C78.61,101.43,78.25,99.81,77.87,98.38Z"/><path class="cls-1" d="M103,0A103,103,0,1,0,206,103,103,103,0,0,0,103,0ZM67.1,109.72H58.6V96H61.7v11.09h5.4Zm13.69,0L80,106.47h-4.2l-.84,3.25H71.76L76.07,96h3.7l4.3,13.69Zm17.6-11.09H94.63v11.09H91.54V98.63H87.77V96H98.39Zm15.12,11.09h-8.8V96h8.59v2.6h-5.48v2.75h4.66V104h-4.66v3.15h5.69Zm11.07.25a7.59,7.59,0,0,1-5.08-2l1.79-2.12a5.44,5.44,0,0,0,3.36,1.43c1.28,0,1.91-.5,1.91-1.32s-.78-1.13-2-1.64l-1.76-.76A4,4,0,0,1,120,99.85c0-2.27,2-4.07,4.87-4.07a6.34,6.34,0,0,1,4.41,1.81l-1.55,2a4.5,4.5,0,0,0-2.86-1.09c-1,0-1.74.46-1.74,1.24s.9,1.13,2.1,1.62L127,102a3.77,3.77,0,0,1,2.71,3.72C129.72,108,127.83,110,124.58,110Zm20.75-11.34h-3.76v11.09h-3.09V98.63H134.7V96h10.62Z"/></g></g></svg>