<svg xmlns="http://www.w3.org/2000/svg" viewBox="0 0 206 206"><defs><style>.cls-1{fill:#fff;}</style></defs><title>photography</title><g id="Layer_2" data-name="Layer 2"><g id="Layer_1-2" data-name="Layer 1"><path class="cls-1" d="M54.94,96.41c-1.85,0-3,1.64-3,4.37s1.2,4.49,3,4.49,3-1.74,3-4.49S56.81,96.41,54.94,96.41Z"/><path class="cls-1" d="M119.35,96.45h-1.58v3.84h1.58c1.62,0,2.5-.69,2.5-2S121,96.45,119.35,96.45Z"/><path class="cls-1" d="M134.89,96.35h-.08c-.32,1.45-.69,3-1.07,4.41L133.4,102h2.94l-.34-1.26C135.62,99.39,135.27,97.77,134.89,96.35Z"/><path class="cls-1" d="M86.23,96.41c-1.85,0-3,1.64-3,4.37s1.2,4.49,3,4.49,3-1.74,3-4.49S88.1,96.41,86.23,96.41Z"/><path class="cls-1" d="M103,0A103,103,0,1,0,206,103,103,103,0,0,0,103,0ZM21.26,103H19.37v4.64H16.26V94h5c3,0,5.35,1.09,5.35,4.41S24.15,103,21.26,103ZM43,107.68H39.95V102H35.22v5.71H32.11V94h3.11v5.27h4.72V94H43Zm11.91.25c-3.67,0-6.21-2.69-6.21-7.16s2.54-7,6.21-7,6.21,2.58,6.21,7S58.64,107.94,54.94,107.94ZM76,96.6H72.22v11.09H69.14V96.6H65.36V94H76Zm10.25,11.34c-3.67,0-6.21-2.69-6.21-7.16s2.54-7,6.21-7,6.21,2.58,6.21,7S89.93,107.94,86.23,107.94Zm22.51-1.66a7.25,7.25,0,0,1-4.6,1.66c-3.7,0-6.63-2.41-6.63-7s3-7.18,6.74-7.18a5.92,5.92,0,0,1,4.26,1.78l-1.7,1.91a3.36,3.36,0,0,0-2.52-1c-2.1,0-3.61,1.66-3.61,4.41s1.28,4.45,3.86,4.45a2.42,2.42,0,0,0,1.45-.42V102.5h-2.27V100h5Zm13.33,1.41-2.62-4.93h-1.68v4.93h-3.11V94h4.93c2.9,0,5.29,1,5.29,4.26a4,4,0,0,1-2.44,3.95l3.09,5.48Zm15.73,0-.84-3.25h-4.2l-.84,3.25h-3.15L133.08,94h3.7l4.3,13.69ZM150.66,103h-1.89v4.64h-3.11V94h5c3,0,5.35,1.09,5.35,4.41S153.56,103,150.66,103Zm21.78,4.64h-3.09V102h-4.72v5.71h-3.11V94h3.11v5.27h4.72V94h3.09Zm11.78,0h-3.09v-4.87L177,94h3.3l1.24,3.15c.36,1,.71,2,1.11,3h.08c.38-1,.78-2,1.16-3L185.12,94h3.23l-4.14,8.82Z"/><path class="cls-1" d="M150.47,96.45h-1.7v4.14h1.7c1.7,0,2.52-.76,2.52-2.18S152.11,96.45,150.47,96.45Z"/><path class="cls-1" d="M21.07,96.45h-1.7v4.14h1.7c1.7,0,2.52-.76,2.52-2.18S22.71,96.45,21.07,96.45Z"/></g></g></svg>