<svg xmlns="http://www.w3.org/2000/svg" viewBox="0 0 206 206"><defs><style>.cls-1{fill:#fff;}</style></defs><title>portraits</title><g id="Layer_2" data-name="Layer 2"><g id="Layer_1-2" data-name="Layer 1"><path class="cls-1" d="M120.87,96.88h-.08c-.32,1.45-.69,3-1.07,4.41l-.34,1.26h2.94l-.34-1.26C121.6,99.93,121.24,98.31,120.87,96.88Z"/><path class="cls-1" d="M71.73,97H70.15v3.84h1.58c1.62,0,2.5-.69,2.5-2S73.34,97,71.73,97Z"/><path class="cls-1" d="M104.28,97H102.7v3.84h1.57c1.62,0,2.5-.69,2.5-2S105.89,97,104.28,97Z"/><path class="cls-1" d="M103,0A103,103,0,1,0,206,103,103,103,0,0,0,103,0ZM36.59,103.58H34.7v4.64H31.6V94.53h5c3,0,5.35,1.09,5.35,4.41S39.49,103.58,36.59,103.58Zm17.47,4.89c-3.67,0-6.21-2.69-6.21-7.16s2.54-7,6.21-7,6.21,2.58,6.21,7S57.76,108.47,54.06,108.47Zm20.39-.25-2.62-4.93H70.15v4.93H67V94.53H72c2.9,0,5.29,1,5.29,4.26a4,4,0,0,1-2.44,3.95l3.09,5.48ZM93.27,97.13H89.51v11.09H86.43V97.13H82.65v-2.6H93.27ZM107,108.22l-2.62-4.93H102.7v4.93H99.59V94.53h4.93c2.9,0,5.29,1,5.29,4.26a4,4,0,0,1-2.44,3.95l3.09,5.48Zm16.78,0-.84-3.25h-4.2l-.84,3.25h-3.15l4.3-13.69h3.7l4.3,13.69Zm12,0h-3.11V94.53h3.11Zm16.92-11.09H149v11.09h-3.09V97.13H142.1v-2.6h10.62Zm10,11.34a7.59,7.59,0,0,1-5.08-2l1.79-2.12a5.44,5.44,0,0,0,3.36,1.43c1.28,0,1.91-.5,1.91-1.32s-.78-1.13-2-1.64l-1.76-.76a4,4,0,0,1-2.77-3.74c0-2.27,2-4.07,4.87-4.07a6.34,6.34,0,0,1,4.41,1.81l-1.55,2a4.5,4.5,0,0,0-2.86-1.09c-1,0-1.74.46-1.74,1.24s.9,1.13,2.1,1.62l1.74.71a3.77,3.77,0,0,1,2.71,3.72C167.86,106.5,166,108.47,162.72,108.47Z"/><path class="cls-1" d="M36.4,97H34.7v4.14h1.7c1.7,0,2.52-.76,2.52-2.18S38,97,36.4,97Z"/><path class="cls-1" d="M54.06,96.95c-1.85,0-3,1.64-3,4.37s1.2,4.49,3,4.49,3-1.74,3-4.49S55.93,96.95,54.06,96.95Z"/></g></g></svg>