<svg xmlns="http://www.w3.org/2000/svg" viewBox="0 0 100 100"><title>Asset 18</title><g id="Layer_2" data-name="Layer 2"><g id="Layer_1-2" data-name="Layer 1"><path d="M50,0a50,50,0,1,0,50,50A50,50,0,0,0,50,0ZM23.7,51.26H21.46v-4H22v3.6H23.7Zm1.66.07A1.38,1.38,0,0,1,24,49.83a1.42,1.42,0,0,1,1.44-1.54,1.37,1.37,0,0,1,1.4,1.49A1.42,1.42,0,0,1,25.37,51.33Zm3.55-2.52-.18,0a.74.74,0,0,0-.71.68,1.48,1.48,0,0,0,0,.25v1.55h-.52v-2c0-.34,0-.64,0-.91h.46l0,.57h0a.87.87,0,0,1,.8-.64l.15,0Zm2.8,1.1h-2a.93.93,0,0,0,1,1,1.91,1.91,0,0,0,.8-.15l.09.38a2.35,2.35,0,0,1-1,.18,1.35,1.35,0,0,1-1.43-1.46,1.41,1.41,0,0,1,1.36-1.56,1.23,1.23,0,0,1,1.2,1.37A2,2,0,0,1,31.71,49.9Zm4.82,1.36H36V49.62c0-.56-.2-.89-.63-.89a.68.68,0,0,0-.62.48.87.87,0,0,0,0,.26v1.79H34.2V49.52c0-.46-.2-.8-.61-.8a.72.72,0,0,0-.65.53.73.73,0,0,0,0,.26v1.75h-.52V49.14c0-.3,0-.55,0-.79h.46l0,.47h0a1,1,0,0,1,.91-.53.86.86,0,0,1,.82.58h0a1.2,1.2,0,0,1,.32-.38,1,1,0,0,1,.64-.2c.38,0,1,.25,1,1.26Zm2.66,0h-.53v-2.9h.53Zm-.28-3.39a.31.31,0,0,1-.32-.32.32.32,0,0,1,.33-.33.33.33,0,1,1,0,.65Zm2.58,3.46a1,1,0,0,1-.89-.46h0v1.58h-.52V49.3c0-.37,0-.67,0-.95h.47l0,.5h0a1.14,1.14,0,0,1,1-.56,1.31,1.31,0,0,1,1.23,1.48A1.37,1.37,0,0,1,41.49,51.33Zm2.6,0a1.66,1.66,0,0,1-.82-.2l.13-.4a1.39,1.39,0,0,0,.7.21c.38,0,.56-.19.56-.43s-.15-.39-.54-.53-.77-.47-.77-.82a.9.9,0,0,1,1-.85,1.45,1.45,0,0,1,.71.18l-.13.38a1.13,1.13,0,0,0-.59-.17c-.31,0-.49.18-.49.4s.17.35.55.49.76.44.76.88S44.78,51.32,44.09,51.32Zm3.75-.06,0-.47h0a1.09,1.09,0,0,1-1,.54c-.46,0-1-.25-1-1.27v-1.7h.53V50c0,.55.17.92.65.92a.76.76,0,0,0,.7-.48.77.77,0,0,0,0-.27V48.36h.53v2.11c0,.3,0,.56,0,.79Zm5.47,0h-.52V49.62c0-.56-.2-.89-.63-.89a.68.68,0,0,0-.62.48.87.87,0,0,0,0,.26v1.79H51V49.52c0-.46-.2-.8-.61-.8a.72.72,0,0,0-.65.53.73.73,0,0,0,0,.26v1.75h-.52V49.14c0-.3,0-.55,0-.79h.46l0,.47h0a1,1,0,0,1,.91-.53.86.86,0,0,1,.82.58h0a1.2,1.2,0,0,1,.32-.38,1,1,0,0,1,.64-.2c.38,0,1,.25,1,1.26Zm3.38,0h-.5l-1.1-2.9h.56L56.21,50a7.52,7.52,0,0,1,.23.74h0c.07-.24.15-.48.25-.74l.56-1.63h.55Z"/><path d="M30.49,48.67a.88.88,0,0,0-.81.86h1.54A.75.75,0,0,0,30.49,48.67Z"/><path d="M25.4,48.69c-.62,0-.89.58-.89,1.13s.37,1.12.88,1.12.88-.47.88-1.13C26.27,49.31,26,48.69,25.4,48.69Z"/><path d="M41.42,48.71a.84.84,0,0,0-.8.65.86.86,0,0,0,0,.22v.5a1.19,1.19,0,0,0,0,.22.81.81,0,0,0,.79.62c.56,0,.88-.46.88-1.12S42,48.71,41.42,48.71Z"/></g></g></svg>