<svg xmlns="http://www.w3.org/2000/svg" viewBox="0 0 200 200"><title>Asset 16</title><g id="Layer_2" data-name="Layer 2"><g id="Layer_1-2" data-name="Layer 1"><path d="M100,0A100,100,0,1,0,200,100,100,100,0,0,0,100,0ZM47.41,102.52h-4.5V94.44h1v7.21h3.45Zm3.33.13a2.76,2.76,0,0,1-2.78-3,2.83,2.83,0,0,1,2.88-3.08,2.75,2.75,0,0,1,2.79,3A2.84,2.84,0,0,1,50.73,102.65Zm7.09-5a1.57,1.57,0,0,0-.36,0,1.48,1.48,0,0,0-1.42,1.36,3,3,0,0,0,0,.49v3.09H55v-4c0-.68,0-1.27,0-1.81h.92l0,1.14h0a1.74,1.74,0,0,1,1.61-1.27,1.13,1.13,0,0,1,.3,0Zm5.6,2.19H59.35a1.86,1.86,0,0,0,2,2,3.81,3.81,0,0,0,1.61-.3l.18.75a4.7,4.7,0,0,1-1.93.36,2.7,2.7,0,0,1-2.85-2.93c0-1.75,1-3.13,2.72-3.13a2.46,2.46,0,0,1,2.4,2.73A4,4,0,0,1,63.43,99.81Zm9.63,2.71H72V99.23c0-1.12-.41-1.79-1.26-1.79a1.37,1.37,0,0,0-1.25,1,1.73,1.73,0,0,0-.08.53v3.59h-1V99c0-.92-.41-1.59-1.21-1.59a1.44,1.44,0,0,0-1.31,1.06,1.46,1.46,0,0,0-.08.52v3.5h-1V98.29c0-.6,0-1.09,0-1.57h.92l0,.94h0a2,2,0,0,1,1.82-1.07,1.72,1.72,0,0,1,1.64,1.16h0a2.39,2.39,0,0,1,.65-.76,2,2,0,0,1,1.28-.41c.77,0,1.91.5,1.91,2.52Zm5.32,0H77.33v-5.8h1.06Zm-.55-6.79a.63.63,0,0,1-.64-.65.64.64,0,0,1,.66-.66.65.65,0,1,1,0,1.31ZM83,102.65a2,2,0,0,1-1.79-.91h0v3.15h-1V98.61c0-.74,0-1.34,0-1.89H81l0,1h0a2.28,2.28,0,0,1,2.06-1.13c1.4,0,2.46,1.19,2.46,3C85.63,101.62,84.36,102.65,83,102.65Zm5.2,0a3.32,3.32,0,0,1-1.63-.4l.26-.8a2.78,2.78,0,0,0,1.39.42c.77,0,1.13-.38,1.13-.86s-.3-.78-1.08-1.07c-1-.37-1.54-.95-1.54-1.64a1.79,1.79,0,0,1,2-1.7,2.9,2.9,0,0,1,1.43.36l-.26.77a2.26,2.26,0,0,0-1.19-.34c-.62,0-1,.36-1,.79s.35.7,1.1,1c1,.38,1.52.89,1.52,1.75C90.36,101.92,89.56,102.64,88.19,102.64Zm7.5-.12-.06-.95h0a2.18,2.18,0,0,1-1.92,1.08c-.91,0-2-.5-2-2.54V96.71h1.06v3.21c0,1.1.34,1.85,1.3,1.85a1.53,1.53,0,0,0,1.39-1,1.54,1.54,0,0,0,.1-.54V96.71h1.06v4.22c0,.6,0,1.13,0,1.58Zm10.93,0h-1V99.23c0-1.12-.41-1.79-1.26-1.79a1.37,1.37,0,0,0-1.25,1,1.73,1.73,0,0,0-.08.53v3.59h-1V99c0-.92-.41-1.59-1.21-1.59a1.44,1.44,0,0,0-1.31,1.06,1.46,1.46,0,0,0-.08.52v3.5h-1V98.29c0-.6,0-1.09,0-1.57h.92l0,.94h0a2,2,0,0,1,1.82-1.07,1.72,1.72,0,0,1,1.64,1.16h0a2.39,2.39,0,0,1,.65-.76,2,2,0,0,1,1.28-.41c.77,0,1.91.5,1.91,2.52Zm6.76,0h-1l-2.21-5.8h1.13l1.14,3.26a15,15,0,0,1,.47,1.49h0c.13-.48.3-1,.49-1.49l1.13-3.26h1.1Z"/><path d="M61,97.34a1.75,1.75,0,0,0-1.62,1.72h3.08A1.5,1.5,0,0,0,61,97.34Z"/><path d="M50.81,97.37c-1.25,0-1.79,1.15-1.79,2.25,0,1.27.73,2.23,1.76,2.23s1.76-.95,1.76-2.25C52.55,98.62,52.05,97.37,50.81,97.37Z"/><path d="M82.85,97.42a1.69,1.69,0,0,0-1.6,1.31,1.73,1.73,0,0,0-.07.43v1a2.39,2.39,0,0,0,0,.43,1.63,1.63,0,0,0,1.58,1.24c1.12,0,1.76-.91,1.76-2.24C84.57,98.42,84,97.42,82.85,97.42Z"/></g></g></svg>