<?xml version="1.0" encoding="utf-8"?>
<!-- Generator: Adobe Illustrator 16.0.4, SVG Export Plug-In . SVG Version: 6.00 Build 0)  -->
<!DOCTYPE svg PUBLIC "-//W3C//DTD SVG 1.1//EN" "http://www.w3.org/Graphics/SVG/1.1/DTD/svg11.dtd">
<svg version="1.1" id="Layer_1" xmlns="http://www.w3.org/2000/svg" xmlns:xlink="http://www.w3.org/1999/xlink" x="0px" y="0px"
	 width="222px" height="222px" viewBox="0 0 222 222" enable-background="new 0 0 222 222" xml:space="preserve">
<g>
	<path fill="#FFFFFF" d="M135.457,106.266c-1.771,0-2.971,1.515-2.971,3.675c0,2.159,1.2,3.675,2.971,3.675
		c1.784,0,2.984-1.516,2.984-3.675C138.441,107.78,137.241,106.266,135.457,106.266z"/>
	<path fill="#FFFFFF" d="M113.167,107.84c0-1.005-0.675-1.47-1.905-1.47h-1.875v2.97h1.875
		C112.492,109.34,113.167,108.845,113.167,107.84z"/>
	<path fill="#FFFFFF" d="M111.562,110.33h-2.175v3.18h2.175c1.244,0,1.904-0.63,1.904-1.59
		C113.467,110.945,112.807,110.33,111.562,110.33z"/>
	<path fill="#FFFFFF" d="M122.947,106.266c-1.771,0-2.971,1.515-2.971,3.675c0,2.159,1.2,3.675,2.971,3.675
		c1.784,0,2.984-1.516,2.984-3.675C125.932,107.78,124.731,106.266,122.947,106.266z"/>
	<polygon fill="#FFFFFF" points="75.937,110.735 78.937,110.735 77.437,106.806 	"/>
	<path fill="#FFFFFF" d="M111.023,7.666h-0.039C54.247,7.702,8.08,54.017,8.08,111.01c0,57.008,46.123,103.324,102.943,103.324
		c56.739,0,102.898-46.359,102.898-103.345C213.882,54.017,167.747,7.702,111.023,7.666z M69.877,106.385h-4.44v3.105h4.17v1.05
		h-4.17v4.005h-1.185v-9.21h5.625V106.385z M80.407,114.545l-1.065-2.774h-3.795l-1.05,2.774h-1.2l3.6-9.21h1.11l3.6,9.21H80.407z
		 M89.302,113.615c1.275,0,2.04-0.705,2.415-1.785h1.17c-0.375,1.725-1.665,2.85-3.585,2.85c-2.325,0-4.125-1.875-4.125-4.739
		c0-2.865,1.8-4.74,4.125-4.74c1.935,0,3.21,1.125,3.585,2.835h-1.17c-0.375-1.064-1.14-1.77-2.415-1.77
		c-1.755,0-2.94,1.484-2.94,3.675C86.362,112.115,87.532,113.615,89.302,113.615z M103.372,106.385h-4.695v2.91h4.26v1.05h-4.26
		v3.135h4.695v1.065h-5.865v-9.21h5.865V106.385z M111.562,114.545h-3.331v-9.21h3.03c1.905,0,3.044,0.855,3.044,2.445
		c0,1.095-0.63,1.77-1.35,1.995c0.99,0.255,1.665,1.14,1.665,2.175C114.622,113.63,113.452,114.545,111.562,114.545z
		 M122.947,114.68c-2.416,0-4.155-1.965-4.155-4.739c0-2.79,1.739-4.74,4.155-4.74c2.43,0,4.169,1.95,4.169,4.74
		C127.116,112.715,125.377,114.68,122.947,114.68z M135.457,114.68c-2.416,0-4.155-1.965-4.155-4.739c0-2.79,1.739-4.74,4.155-4.74
		c2.43,0,4.169,1.95,4.169,4.74C139.626,112.715,137.887,114.68,135.457,114.68z M149.916,114.545l-3.465-4.2l-0.99,1.065v3.135
		h-1.185v-9.21h1.185v4.605l4.291-4.605h1.5l-3.945,4.2l4.08,5.01H149.916z"/>
</g>
</svg>
