<svg xmlns="http://www.w3.org/2000/svg" viewBox="0 0 212 212"><defs><style>.cls-1{fill:#fff;}</style></defs><title>FILMF</title><g id="Layer_2" data-name="Layer 2"><g id="Layer_1-2" data-name="Layer 1"><path class="cls-1" d="M106,0A106,106,0,1,0,212,106,106,106,0,0,0,106,0ZM94,101.51H89.24v3.55h4v1.12h-4v4.71H87.89v-10.5H94Zm5.5,9.38H98.12v-10.5h1.34Zm11.11,0h-5.92v-10.5H106v9.36h4.58Zm12.93,0h-1.26v-5.78c0-.93.11-2.18.18-3.11h-.06l-.83,2.34-2,5.49h-.77l-2-5.49-.83-2.34h-.06c.06.93.16,2.18.16,3.11v5.78h-1.23v-10.5h1.58l2,5.63.75,2.15h.06l.74-2.15,2-5.63h1.57Z"/></g></g></svg>