<?xml version="1.0" encoding="utf-8"?>
<!-- Generator: Adobe Illustrator 16.0.4, SVG Export Plug-In . SVG Version: 6.00 Build 0)  -->
<!DOCTYPE svg PUBLIC "-//W3C//DTD SVG 1.1//EN" "http://www.w3.org/Graphics/SVG/1.1/DTD/svg11.dtd">
<svg version="1.1" id="Layer_1" xmlns="http://www.w3.org/2000/svg" xmlns:xlink="http://www.w3.org/1999/xlink" x="0px" y="0px"
	 width="222px" height="222px" viewBox="0 0 222 222" enable-background="new 0 0 222 222" xml:space="preserve">
<g>
	<path fill="#FFFFFF" d="M132.053,108.005c0-1.02-0.66-1.635-1.875-1.635h-2.205v3.27h2.205
		C131.393,109.64,132.053,109.025,132.053,108.005z"/>
	<polygon fill="#FFFFFF" points="104.857,110.735 107.857,110.735 106.357,106.806 	"/>
	<polygon fill="#FFFFFF" points="139.928,110.735 142.928,110.735 141.428,106.806 	"/>
	<path fill="#FFFFFF" d="M111.022,7.666h-0.039C54.247,7.702,8.08,54.017,8.08,111.01c0,57.008,46.123,103.324,102.942,103.324
		c56.739,0,102.897-46.359,102.897-103.345C213.881,54.017,167.746,7.702,111.022,7.666z M64.328,114.545h-1.186v-9.21h1.186
		V114.545z M76.673,114.545h-0.87l-5.145-7.319v7.319h-1.141v-9.21h1.125l4.905,7.005v-7.005h1.125V114.545z M84.652,114.68
		c-1.83,0-3.194-0.915-3.539-2.535h1.199c0.346,1.021,1.215,1.53,2.34,1.53c1.2,0,2.04-0.585,2.04-1.604
		c0-0.721-0.405-1.186-1.47-1.455l-1.65-0.436c-1.274-0.329-2.204-0.975-2.204-2.369c0-1.561,1.29-2.61,3.029-2.61
		c1.905,0,3.03,0.975,3.375,2.43h-1.185c-0.285-0.824-0.976-1.425-2.19-1.425c-1.095,0-1.904,0.57-1.904,1.515
		c0,0.78,0.51,1.155,1.47,1.41l1.575,0.405c1.47,0.375,2.295,1.17,2.295,2.475C87.833,113.675,86.482,114.68,84.652,114.68z
		 M99.277,106.385h-3.21v8.16h-1.185v-8.16h-3.21v-1.05h7.604V106.385z M109.328,114.545l-1.065-2.774h-3.795l-1.05,2.774h-1.2
		l3.6-9.21h1.11l3.6,9.21H109.328z M122.138,110.63c0,2.46-1.56,4.05-3.81,4.05c-2.4,0-4.23-1.859-4.23-4.739s1.846-4.74,4.2-4.74
		c1.965,0,3.255,1.125,3.63,2.835h-1.186c-0.39-1.08-1.14-1.77-2.444-1.77c-1.785,0-3.015,1.47-3.015,3.675
		c0,2.204,1.215,3.689,3.045,3.689c1.604,0,2.549-1.005,2.685-2.609h-2.205V110h3.33V110.63z M132.248,114.545l-2.641-3.899h-1.635
		v3.899h-1.186v-9.21h3.42c1.846,0,3.016,0.931,3.016,2.67c0,1.53-0.9,2.4-2.34,2.595l2.715,3.945H132.248z M144.397,114.545
		l-1.065-2.774h-3.795l-1.049,2.774h-1.201l3.601-9.21h1.11l3.6,9.21H144.397z M158.857,114.545h-1.125v-7.02l-2.881,7.02h-0.81
		l-2.91-7.02v7.02h-1.125v-9.21h1.335l3.12,7.56l3.104-7.56h1.291V114.545z"/>
</g>
</svg>
