<svg xmlns="http://www.w3.org/2000/svg" viewBox="0 0 212 212"><defs><style>.cls-1{fill:#fff;}</style></defs><title>LANDSCAPESF</title><g id="Layer_2" data-name="Layer 2"><g id="Layer_1-2" data-name="Layer 1"><path class="cls-1" d="M134.34,101.82h-1.71V106h1.71c1.84,0,2.72-.67,2.72-2.16S136.14,101.82,134.34,101.82Z"/><path class="cls-1" d="M88.29,101.84H87.1v8.32h1.18c2.46,0,3.68-1.55,3.68-4.21S90.75,101.84,88.29,101.84Z"/><path class="cls-1" d="M123.14,101.84c-.34,1.22-.67,2.37-1,3.54l-.51,1.6h3.15l-.5-1.6c-.37-1.17-.7-2.32-1-3.54Z"/><path class="cls-1" d="M106,0A106,106,0,1,0,212,106,106,106,0,0,0,106,0ZM57.86,111.25H51.94v-10.5h1.34v9.36h4.58Zm10,0-1-3.2H63.06l-1,3.2H60.69l3.55-10.5h1.5l3.55,10.5Zm12.67,0H79.19l-3.79-6.61-1.14-2.16h-.06c.06,1.06.16,2.18.16,3.28v5.49H73.09v-10.5h1.38l3.81,6.59,1.14,2.18h.06c-.06-1.06-.18-2.24-.18-3.35v-5.43h1.26Zm7.89,0H85.76v-10.5h2.63c3.23,0,5,1.87,5,5.2S91.62,111.25,88.45,111.25Zm12.42.19a5.05,5.05,0,0,1-3.67-1.55L98,109a4.09,4.09,0,0,0,2.9,1.31c1.38,0,2.19-.69,2.19-1.71s-.77-1.41-1.76-1.86l-1.5-.66a3,3,0,0,1-2.13-2.71c0-1.6,1.41-2.79,3.31-2.79a4.29,4.29,0,0,1,3.09,1.3l-.7.86a3.38,3.38,0,0,0-2.38-1c-1.18,0-2,.59-2,1.54s.93,1.39,1.74,1.75l1.5.64c1.22.53,2.16,1.25,2.16,2.8S103.07,111.44,100.86,111.44Zm12,0c-2.64,0-4.61-2-4.61-5.44s2-5.44,4.69-5.44a3.88,3.88,0,0,1,2.87,1.3l-.75.85a2.81,2.81,0,0,0-2.1-1c-2,0-3.33,1.63-3.33,4.24s1.26,4.31,3.26,4.31a3.06,3.06,0,0,0,2.4-1.17l.75.82A4,4,0,0,1,112.82,111.44Zm13.26-.19-1-3.2h-3.83l-1,3.2h-1.36l3.55-10.5h1.5l3.55,10.5Zm8.43-4.16h-1.89v4.16h-1.34v-10.5h3.23c2.32,0,3.87.78,3.87,3.09S136.8,107.09,134.51,107.09ZM149,111.25h-6.21v-10.5h6.05v1.12h-4.71v3.3h4v1.14h-4v3.81H149Zm7.45.19a5.05,5.05,0,0,1-3.67-1.55l.8-.93a4.09,4.09,0,0,0,2.9,1.31c1.38,0,2.19-.69,2.19-1.71s-.77-1.41-1.76-1.86l-1.5-.66a3,3,0,0,1-2.13-2.71c0-1.6,1.41-2.79,3.31-2.79a4.29,4.29,0,0,1,3.09,1.3l-.7.86a3.38,3.38,0,0,0-2.38-1c-1.18,0-2,.59-2,1.54s.93,1.39,1.74,1.75l1.5.64c1.22.53,2.16,1.25,2.16,2.8S158.69,111.44,156.48,111.44Z"/><path class="cls-1" d="M64.95,101.84c-.34,1.22-.67,2.37-1,3.54l-.51,1.6h3.15l-.5-1.6c-.37-1.17-.7-2.32-1-3.54Z"/></g></g></svg>