<svg xmlns="http://www.w3.org/2000/svg" viewBox="0 0 212 212"><defs><style>.cls-1{fill:#fff;}</style></defs><title>LATESTF</title><g id="Layer_2" data-name="Layer 2"><g id="Layer_1-2" data-name="Layer 1"><path class="cls-1" d="M88.74,102c-.34,1.22-.67,2.37-1,3.54l-.51,1.6h3.15l-.5-1.6c-.37-1.17-.7-2.32-1-3.54Z"/><path class="cls-1" d="M106,0A106,106,0,1,0,212,106,106,106,0,0,0,106,0ZM81.65,111.39H75.73v-10.5h1.34v9.36h4.58Zm10,0-1-3.2H86.85l-1,3.2H84.48L88,100.89h1.5l3.55,10.5ZM102.94,102H99.76v9.38H98.43V102H95.24v-1.12h7.7Zm10.4,9.38h-6.21v-10.5h6.05V102h-4.71v3.3h4v1.14h-4v3.81h4.87Zm7.45.19a5.05,5.05,0,0,1-3.67-1.55l.8-.93a4.09,4.09,0,0,0,2.9,1.31c1.38,0,2.19-.69,2.19-1.71s-.77-1.41-1.76-1.86l-1.5-.66a3,3,0,0,1-2.13-2.71c0-1.6,1.41-2.79,3.31-2.79A4.29,4.29,0,0,1,124,102l-.7.86a3.38,3.38,0,0,0-2.38-1c-1.18,0-2,.59-2,1.54s.93,1.39,1.74,1.75l1.5.64c1.22.53,2.16,1.25,2.16,2.8S123,111.58,120.8,111.58ZM135.14,102h-3.19v9.38h-1.33V102h-3.18v-1.12h7.7Z"/></g></g></svg>