<svg xmlns="http://www.w3.org/2000/svg" viewBox="0 0 212 212"><defs><style>.cls-1{fill:#fff;}</style></defs><title>photography_1</title><g id="Layer_2" data-name="Layer 2"><g id="Layer_1-2" data-name="Layer 1"><path class="cls-1" d="M129.53,100.81c-.34,1.22-.67,2.37-1,3.54L128,106h3.15l-.5-1.6c-.37-1.17-.7-2.32-1-3.54Z"/><path class="cls-1" d="M120.84,102.67c0-1.38-.9-1.87-2.53-1.87h-1.76v3.91h1.76C119.95,104.7,120.84,104,120.84,102.67Z"/><path class="cls-1" d="M94,100.7c-1.89,0-3.12,1.62-3.12,4.23s1.23,4.32,3.12,4.32,3.11-1.7,3.11-4.32S95.84,100.7,94,100.7Z"/><path class="cls-1" d="M70.83,100.7c-1.89,0-3.12,1.62-3.12,4.23s1.23,4.32,3.12,4.32,3.11-1.7,3.11-4.32S72.7,100.7,70.83,100.7Z"/><path class="cls-1" d="M106,0A106,106,0,1,0,212,106,106,106,0,0,0,106,0ZM45.88,106.06H44v4.16H42.65V99.72h3.23c2.32,0,3.87.78,3.87,3.09S48.17,106.06,45.88,106.06Zm15.86,4.16H60.41v-4.95H55.53v4.95H54.19V99.72h1.34v4.4h4.88v-4.4h1.33Zm9.09.19c-2.64,0-4.5-2.11-4.5-5.49s1.86-5.39,4.5-5.39,4.48,2,4.48,5.39S73.45,110.42,70.83,110.42Zm15.44-9.57H83.08v9.38H81.75v-9.38H78.57V99.72h7.7Zm7.7,9.57c-2.64,0-4.5-2.11-4.5-5.49s1.86-5.39,4.5-5.39,4.48,2,4.48,5.39S96.59,110.42,94,110.42Zm16.43-1.22a4.72,4.72,0,0,1-3.27,1.22c-2.75,0-4.72-2-4.72-5.44s2-5.44,4.85-5.44a4.08,4.08,0,0,1,3,1.3l-.77.85a2.86,2.86,0,0,0-2.22-1c-2.13,0-3.49,1.63-3.49,4.24s1.25,4.31,3.49,4.31a2.93,2.93,0,0,0,1.9-.62v-2.74H107v-1.1h3.44Zm10.58,1-2.53-4.43h-1.89v4.43h-1.34V99.72h3.3c2.13,0,3.67.77,3.67,2.95a2.88,2.88,0,0,1-2.35,3l2.67,4.58Zm11.5,0-1-3.2h-3.83l-1,3.2h-1.36l3.55-10.5h1.5l3.55,10.5Zm8.43-4.16H139v4.16h-1.34V99.72h3.23c2.32,0,3.87.78,3.87,3.09S143.2,106.06,140.91,106.06Zm15.86,4.16h-1.33v-4.95h-4.88v4.95h-1.34V99.72h1.34v4.4h4.88v-4.4h1.33Zm8.24-4.07v4.07h-1.33v-4.07l-3.17-6.43h1.44l1.34,3c.34.77.66,1.5,1,2.29h.06c.35-.78.72-1.52,1-2.29l1.36-3h1.38Z"/><path class="cls-1" d="M140.73,100.8H139V105h1.71c1.84,0,2.72-.67,2.72-2.16S142.54,100.8,140.73,100.8Z"/><path class="cls-1" d="M45.71,100.8H44V105h1.71c1.84,0,2.72-.67,2.72-2.16S47.52,100.8,45.71,100.8Z"/></g></g></svg>