<svg xmlns="http://www.w3.org/2000/svg" viewBox="0 0 212 212"><defs><style>.cls-1{fill:#fff;}</style></defs><title>PORTRAITSF</title><g id="Layer_2" data-name="Layer 2"><g id="Layer_1-2" data-name="Layer 1"><path class="cls-1" d="M90,103.17c0-1.38-.9-1.87-2.53-1.87H85.72v3.91h1.76C89.11,105.2,90,104.53,90,103.17Z"/><path class="cls-1" d="M112.2,103.17c0-1.38-.9-1.87-2.53-1.87h-1.76v3.91h1.76C111.3,105.2,112.2,104.53,112.2,103.17Z"/><path class="cls-1" d="M120.89,101.31c-.34,1.22-.67,2.37-1,3.54l-.51,1.6h3.15l-.5-1.6c-.37-1.17-.7-2.32-1-3.54Z"/><path class="cls-1" d="M63,101.3H61.24v4.18H63c1.84,0,2.72-.67,2.72-2.16S64.76,101.3,63,101.3Z"/><path class="cls-1" d="M75.32,101.2c-1.89,0-3.12,1.62-3.12,4.23s1.23,4.32,3.12,4.32,3.11-1.7,3.11-4.32S77.19,101.2,75.32,101.2Z"/><path class="cls-1" d="M106,0A106,106,0,1,0,212,106,106,106,0,0,0,106,0ZM63.13,106.56H61.24v4.16H59.89v-10.5h3.23c2.32,0,3.87.78,3.87,3.09S65.42,106.56,63.13,106.56Zm12.19,4.35c-2.64,0-4.5-2.11-4.5-5.49s1.86-5.39,4.5-5.39,4.48,2,4.48,5.39S77.94,110.92,75.32,110.92Zm14.82-.19-2.53-4.43H85.72v4.43H84.37v-10.5h3.3c2.13,0,3.67.77,3.67,2.95a2.88,2.88,0,0,1-2.35,3l2.67,4.58Zm12.24-9.38H99.19v9.38H97.86v-9.38H94.68v-1.12h7.7Zm10,9.38-2.53-4.43h-1.89v4.43h-1.34v-10.5h3.3c2.13,0,3.67.77,3.67,2.95a2.88,2.88,0,0,1-2.35,3l2.67,4.58Zm11.5,0-1-3.2H119l-1,3.2h-1.36l3.55-10.5h1.5l3.55,10.5Zm6.54,0H129v-10.5h1.34Zm11.89-9.38h-3.19v9.38h-1.33v-9.38h-3.18v-1.12h7.7Zm6.48,9.57a5.05,5.05,0,0,1-3.67-1.55l.8-.93a4.09,4.09,0,0,0,2.9,1.31c1.38,0,2.19-.69,2.19-1.71s-.77-1.41-1.76-1.86l-1.5-.66a3,3,0,0,1-2.13-2.71c0-1.6,1.41-2.79,3.31-2.79a4.29,4.29,0,0,1,3.09,1.3l-.7.86a3.38,3.38,0,0,0-2.38-1c-1.18,0-2,.59-2,1.54s.93,1.39,1.74,1.75l1.5.64c1.22.53,2.16,1.25,2.16,2.8S151,110.92,148.74,110.92Z"/></g></g></svg>