<?xml version="1.0" encoding="utf-8"?>
<!-- Generator: Adobe Illustrator 16.0.4, SVG Export Plug-In . SVG Version: 6.00 Build 0)  -->
<!DOCTYPE svg PUBLIC "-//W3C//DTD SVG 1.1//EN" "http://www.w3.org/Graphics/SVG/1.1/DTD/svg11.dtd">
<svg version="1.1" id="Layer_1" xmlns="http://www.w3.org/2000/svg" xmlns:xlink="http://www.w3.org/1999/xlink" x="0px" y="0px"
	 width="222px" height="222px" viewBox="0 0 222 222" enable-background="new 0 0 222 222" xml:space="preserve">
<g>
	<path fill="#FFFFFF" d="M144.779,108.005c0-1.02-0.66-1.635-1.875-1.635h-2.205v3.27h2.205
		C144.119,109.64,144.779,109.025,144.779,108.005z"/>
	<path fill="#FFFFFF" d="M111.022,7.666h-0.039C54.247,7.702,8.08,54.017,8.08,111.01c0,57.008,46.123,103.324,102.943,103.324
		c56.739,0,102.897-46.359,102.897-103.345C213.881,54.017,167.746,7.702,111.022,7.666z M80.355,106.385h-3.21v8.16H75.96v-8.16
		H72.75v-1.05h7.604V106.385z M92.58,114.545H91.5l-1.935-7.185l-1.965,7.185h-1.065l-2.445-9.21h1.17l1.89,7.32l1.95-7.32h0.945
		l1.95,7.32l1.89-7.32h1.14L92.58,114.545z M100.59,114.545h-1.185v-9.21h1.185V114.545z M112.74,106.385h-3.21v8.16h-1.185v-8.16
		h-3.209v-1.05h7.605V106.385z M124.244,106.385h-3.209v8.16h-1.186v-8.16h-3.209v-1.05h7.604V106.385z M134.654,106.385h-4.695
		v2.91h4.26v1.05h-4.26v3.135h4.695v1.065h-5.865v-9.21h5.865V106.385z M144.975,114.545l-2.641-3.899h-1.635v3.899h-1.186v-9.21
		h3.42c1.846,0,3.016,0.931,3.016,2.67c0,1.53-0.9,2.4-2.34,2.595l2.715,3.945H144.975z"/>
</g>
</svg>
