<?xml version="1.0" encoding="utf-8"?>
<!-- Generator: Adobe Illustrator 16.0.4, SVG Export Plug-In . SVG Version: 6.00 Build 0)  -->
<!DOCTYPE svg PUBLIC "-//W3C//DTD SVG 1.1//EN" "http://www.w3.org/Graphics/SVG/1.1/DTD/svg11.dtd">
<svg version="1.1" id="Layer_1" xmlns="http://www.w3.org/2000/svg" xmlns:xlink="http://www.w3.org/1999/xlink" x="0px" y="0px"
	 width="222px" height="222px" viewBox="0 0 222 222" enable-background="new 0 0 222 222" xml:space="preserve">
<g>
	<path fill="#FFFFFF" d="M134.047,110.33h-2.175v3.18h2.175c1.245,0,1.904-0.63,1.904-1.59
		C135.951,110.945,135.292,110.33,134.047,110.33z"/>
	<path fill="#FFFFFF" d="M135.652,107.84c0-1.005-0.676-1.47-1.905-1.47h-1.875v2.97h1.875
		C134.977,109.34,135.652,108.845,135.652,107.84z"/>
	<path fill="#FFFFFF" d="M86.183,106.266c-1.77,0-2.97,1.515-2.97,3.675c0,2.159,1.2,3.675,2.97,3.675
		c1.785,0,2.985-1.516,2.985-3.675C89.167,107.78,87.967,106.266,86.183,106.266z"/>
	<path fill="#FFFFFF" d="M111.022,7.666h-0.039C54.247,7.702,8.08,54.017,8.08,111.01c0,57.008,46.123,103.324,102.942,103.324
		c56.739,0,102.897-46.359,102.897-103.345C213.881,54.017,167.746,7.702,111.022,7.666z M75.337,110.75v3.795h-1.17v-3.795
		l-3.33-5.415h1.29l2.655,4.351l2.655-4.351h1.26L75.337,110.75z M86.183,114.68c-2.415,0-4.155-1.965-4.155-4.739
		c0-2.79,1.74-4.74,4.155-4.74c2.43,0,4.169,1.95,4.169,4.74C90.352,112.715,88.612,114.68,86.183,114.68z M102.067,110.9
		c0,2.52-1.515,3.779-3.615,3.779c-2.085,0-3.6-1.26-3.6-3.795v-5.55h1.17v5.415c0,1.965,0.945,2.88,2.43,2.88s2.43-0.915,2.43-2.88
		v-5.415h1.185V110.9z M114.066,106.385h-3.209v8.16h-1.185v-8.16h-3.209v-1.05h7.604V106.385z M125.677,110.9
		c0,2.52-1.515,3.779-3.614,3.779c-2.086,0-3.601-1.26-3.601-3.795v-5.55h1.17v5.415c0,1.965,0.945,2.88,2.431,2.88
		c1.484,0,2.43-0.915,2.43-2.88v-5.415h1.185V110.9z M134.047,114.545h-3.33v-9.21h3.03c1.905,0,3.045,0.855,3.045,2.445
		c0,1.095-0.63,1.77-1.351,1.995c0.99,0.255,1.666,1.14,1.666,2.175C137.107,113.63,135.938,114.545,134.047,114.545z
		 M147.652,106.385h-4.695v2.91h4.26v1.05h-4.26v3.135h4.695v1.065h-5.865v-9.21h5.865V106.385z"/>
</g>
</svg>
