<?xml version="1.0" encoding="utf-8"?>
<!-- Generator: Adobe Illustrator 16.0.4, SVG Export Plug-In . SVG Version: 6.00 Build 0)  -->
<!DOCTYPE svg PUBLIC "-//W3C//DTD SVG 1.1//EN" "http://www.w3.org/Graphics/SVG/1.1/DTD/svg11.dtd">
<svg version="1.1" id="Layer_1" xmlns="http://www.w3.org/2000/svg" xmlns:xlink="http://www.w3.org/1999/xlink" x="0px" y="0px"
	 width="42.855px" height="57.171px" viewBox="0 0 42.855 57.171" enable-background="new 0 0 42.855 57.171" xml:space="preserve">
<g enable-background="new    ">
	<path d="M41.388,52.511c-0.53,2.205-2.316,3.823-4.466,4.047c-5.135,0.586-10.326,0.586-15.489,0.586
		c-5.163,0-10.354,0-15.489-0.586c-2.149-0.224-3.963-1.842-4.465-4.047c-0.726-3.126-0.726-6.559-0.726-9.768
		c0-3.237,0.028-6.643,0.726-9.769c0.53-2.204,2.316-3.823,4.493-4.074c5.107-0.559,10.298-0.559,15.461-0.559
		c5.163,0,10.354,0,15.489,0.559c2.149,0.251,3.963,1.87,4.466,4.074c0.726,3.126,0.726,6.531,0.726,9.769
		C42.114,45.953,42.086,49.385,41.388,52.511z M12.558,35.794V33.17H3.851v2.624h2.93v15.88h2.791v-15.88H12.558z M17.108,7.132
		l-3.377,11.136v7.562H10.94v-7.562c-0.251-1.368-0.809-3.321-1.702-5.917c-0.614-1.73-1.228-3.488-1.814-5.219h2.958l1.981,7.34
		l1.898-7.34H17.108z M20.094,51.674V37.887H17.61v10.55c-0.559,0.781-1.089,1.172-1.591,1.172c-0.335,0-0.53-0.195-0.586-0.586
		c-0.028-0.084-0.028-0.391-0.028-0.977V37.887h-2.484v10.912c0,0.977,0.084,1.619,0.224,2.037c0.223,0.698,0.809,1.033,1.619,1.033
		c0.893,0,1.842-0.559,2.847-1.703v1.508H20.094z M24.587,21.31c0,1.479-0.251,2.595-0.782,3.293
		c-0.697,0.949-1.674,1.423-2.958,1.423c-1.256,0-2.233-0.474-2.931-1.423c-0.53-0.726-0.781-1.814-0.781-3.293v-4.884
		c0-1.479,0.251-2.568,0.781-3.266c0.698-0.949,1.675-1.424,2.931-1.424c1.284,0,2.26,0.475,2.958,1.424
		c0.531,0.697,0.782,1.786,0.782,3.266V21.31z M22.047,15.923c0-1.283-0.363-1.926-1.2-1.926c-0.81,0-1.2,0.643-1.2,1.926v5.861
		c0,1.283,0.391,1.953,1.2,1.953c0.837,0,1.2-0.67,1.2-1.953V15.923z M29.582,42.045c0-1.283-0.056-2.204-0.251-2.763
		c-0.308-1.032-1.005-1.562-1.981-1.562c-0.921,0-1.786,0.502-2.596,1.507V33.17h-2.483v18.504h2.483v-1.34
		c0.838,1.032,1.703,1.535,2.596,1.535c0.977,0,1.674-0.53,1.981-1.535c0.195-0.586,0.251-1.507,0.251-2.791V42.045z M27.099,47.739
		c0,1.256-0.362,1.87-1.089,1.87c-0.418,0-0.837-0.195-1.256-0.614v-8.4c0.419-0.419,0.838-0.614,1.256-0.614
		c0.727,0,1.089,0.643,1.089,1.87V47.739z M33.936,25.831h-2.539v-1.534c-1.005,1.172-1.953,1.729-2.875,1.729
		c-0.809,0-1.395-0.335-1.646-1.032c-0.139-0.419-0.223-1.089-0.223-2.093V11.905h2.539v10.242c0,0.586,0,0.921,0.028,0.977
		c0.056,0.391,0.251,0.614,0.586,0.614c0.503,0,1.032-0.391,1.591-1.2V11.905h2.539V25.831z M39.016,46.902h-2.54
		c0,1.005-0.028,1.562-0.056,1.702c-0.14,0.67-0.502,1.005-1.116,1.005c-0.865,0-1.284-0.642-1.284-1.926v-2.428h4.996V42.38
		c0-1.479-0.252-2.539-0.754-3.237c-0.726-0.949-1.702-1.423-2.958-1.423c-1.284,0-2.261,0.474-2.986,1.423
		c-0.53,0.698-0.781,1.759-0.781,3.237v4.828c0,1.479,0.278,2.567,0.81,3.237c0.725,0.949,1.702,1.424,3.014,1.424
		s2.344-0.503,3.014-1.479c0.308-0.446,0.531-0.949,0.586-1.507c0.057-0.251,0.057-0.81,0.057-1.619V46.902z M36.531,43.162H34.02
		v-1.283c0-1.256,0.419-1.898,1.256-1.898c0.838,0,1.256,0.643,1.256,1.898V43.162z"/>
</g>
</svg>
