<?xml version="1.0" encoding="utf-8"?>
<!-- Generator: Adobe Illustrator 16.0.4, SVG Export Plug-In . SVG Version: 6.00 Build 0)  -->
<!DOCTYPE svg PUBLIC "-//W3C//DTD SVG 1.1//EN" "http://www.w3.org/Graphics/SVG/1.1/DTD/svg11.dtd">
<svg version="1.1" id="Layer_1" xmlns="http://www.w3.org/2000/svg" xmlns:xlink="http://www.w3.org/1999/xlink" x="0px" y="0px"
	 width="18.469px" height="15px" viewBox="0 0 18.469 15" enable-background="new 0 0 18.469 15" xml:space="preserve">
<g>
	<path fill="#1D1D1B" d="M16.57,3.738c0.012,0.164,0.012,0.328,0.012,0.492c0,5.004-3.809,10.77-10.77,10.77
		C3.668,15,1.676,14.379,0,13.301c0.305,0.035,0.598,0.047,0.914,0.047c1.77,0,3.398-0.598,4.699-1.617
		c-1.664-0.035-3.059-1.125-3.539-2.625c0.234,0.035,0.469,0.059,0.715,0.059c0.34,0,0.68-0.047,0.996-0.129
		C2.051,8.684,0.75,7.16,0.75,5.32c0-0.012,0-0.035,0-0.047c0.504,0.281,1.09,0.457,1.711,0.48c-1.02-0.68-1.688-1.84-1.688-3.152
		c0-0.703,0.188-1.348,0.516-1.91c1.863,2.297,4.664,3.797,7.805,3.961C9.035,4.371,9,4.078,9,3.785C9,1.699,10.688,0,12.785,0
		c1.09,0,2.074,0.457,2.766,1.195c0.855-0.164,1.676-0.48,2.402-0.914c-0.281,0.879-0.879,1.617-1.664,2.086
		c0.762-0.082,1.5-0.293,2.18-0.586C17.953,2.531,17.309,3.199,16.57,3.738z"/>
</g>
</svg>
