<?xml version="1.0" encoding="utf-8"?>
<!-- Generator: Adobe Illustrator 16.0.4, SVG Export Plug-In . SVG Version: 6.00 Build 0)  -->
<!DOCTYPE svg PUBLIC "-//W3C//DTD SVG 1.1//EN" "http://www.w3.org/Graphics/SVG/1.1/DTD/svg11.dtd">
<svg version="1.1" id="Layer_1" xmlns="http://www.w3.org/2000/svg" xmlns:xlink="http://www.w3.org/1999/xlink" x="0px" y="0px"
	 width="15.883px" height="16.707px" viewBox="0 0 15.883 16.707" enable-background="new 0 0 15.883 16.707" xml:space="preserve">
<g>
	<path fill="#1D1D1B" d="M10.16,12.591c0,0.612-0.18,1.215-0.481,1.736c-1.034,1.758-3.192,2.38-5.11,2.38
		c-1.506,0-3.363-0.392-4.197-1.797C0.131,14.519,0,14.057,0,13.595c0-1.135,0.703-2.078,1.637-2.661
		c1.174-0.732,2.701-0.913,4.056-1.004C5.342,9.468,5.061,9.057,5.061,8.454c0-0.321,0.09-0.572,0.211-0.854
		c-0.231,0.021-0.452,0.04-0.684,0.04c-1.957,0-3.523-1.426-3.523-3.424c0-1.104,0.521-2.188,1.355-2.911
		C3.504,0.371,5.04,0,6.436,0h4.197L9.247,0.884H7.932c0.934,0.793,1.506,1.677,1.506,2.941c0,2.601-2.379,2.892-2.379,4.167
		C7.059,9.317,10.16,9.759,10.16,12.591z M8.734,13.444c0-1.355-1.345-2.179-2.318-2.882c-0.161-0.021-0.322-0.021-0.482-0.021
		c-1.637,0-4.066,0.522-4.066,2.591c0,1.958,2.119,2.66,3.745,2.66C7.098,15.793,8.734,15.171,8.734,13.444z M7.038,6.426
		C7.449,5.984,7.57,5.422,7.57,4.829c0-1.485-0.873-4.006-2.682-4.006c-0.562,0-1.145,0.281-1.485,0.723
		C3.042,1.998,2.932,2.591,2.932,3.152c0,1.507,0.854,3.876,2.66,3.876C6.094,7.028,6.687,6.787,7.038,6.426z M15.883,6.998v1.084
		h-2.138v2.199h-1.054V8.082h-2.129V6.998h2.129V4.819h1.054v2.179H15.883z"/>
</g>
</svg>
