<?xml version="1.0" encoding="utf-8"?>
<!-- Generator: Adobe Illustrator 16.0.4, SVG Export Plug-In . SVG Version: 6.00 Build 0)  -->
<!DOCTYPE svg PUBLIC "-//W3C//DTD SVG 1.1//EN" "http://www.w3.org/Graphics/SVG/1.1/DTD/svg11.dtd">
<svg version="1.1" id="Layer_1" xmlns="http://www.w3.org/2000/svg" xmlns:xlink="http://www.w3.org/1999/xlink" x="0px" y="0px"
	 width="1920px" height="960px" viewBox="0 0 1920 960" enable-background="new 0 0 1920 960" xml:space="preserve">
<path fill="#333333" d="M960,726.123c-6.531,0-13.542-1.326-22.629-4.292L54.815,338.111l-0.312-0.125
	c-12.226-4.89-21.639-14.857-26.505-28.065c-4.931-13.384-4.663-28.801,0.736-42.298c7.297-18.244,26.197-30.032,48.148-30.032
	c7.568,0,14.949,1.398,21.942,4.156L960,614.146l865.454-374.25l2.557-2.557c2.193-1.023,7.298-1.542,15.188-1.542
	c19.857,0,42.129,8.937,47.12,28.902l0.373,1.493l0.571,1.429c5.399,13.497,5.667,28.914,0.736,42.298
	c-4.865,13.208-14.277,23.175-26.503,28.064l-0.312,0.125L982.629,721.831C973.543,724.797,966.531,726.123,960,726.123z"/>
</svg>
